FFmpeg version SVN-r25716, Copyright (c) 2000-2010 the FFmpeg developers  built on Nov 10 2010 12:23:18 with gcc 4.1.2 20080704 (Red Hat 4.1.2-48)  configuration: --enable-libmp3lame --enable-shared --disable-mmx --arch=x86_64  libavutil     50.33. 0 / 50.33. 0  libavcore      0.12. 1 /  0.12. 1  libavcodec    52.94. 4 / 52.94. 4  libavformat   52.84. 0 / 52.84. 0  libavdevice   52. 2. 2 / 52. 2. 2  libavfilter    1.59. 0 /  1.59. 0  libswscale     0.12. 0 /  0.12. 0Input #0, avi, from '/RAID10/data/converted_video_files/11971.avi':  Duration: 00:00:55.08, start: 0.000000, bitrate: 9045 kb/s    Stream #0.0: Video: mpeg4, yuv420p, 720x480 [PAR 1:1 DAR 3:2], 25 tbr, 29.97 tbn, 25 tbc    Stream #0.1: Audio: pcm_s16le, 48000 Hz, 2 channels, s16, 1536 kb/s[buffer @ 0xc7ec200] w:720 h:480 pixfmt:yuv420pOutput #0, flv, to '/RAID10/data/converted_video_files/11971.flv':  Metadata:    encoder         : Lavf52.84.0    Stream #0.0: Video: flv, yuv420p, 720x480 [PAR 1:1 DAR 3:2], q=2-31, 600 kb/s, 1k tbn, 24 tbc    Stream #0.1: Audio: libmp3lame, 22050 Hz, 2 channels, s16, 96 kb/sStream mapping:  Stream #0.0 -> #0.0  Stream #0.1 -> #0.1Press [q] to stop encodingframe=   28 fps=  0 q=16.7 size=     246kB time=1.21 bitrate=1666.3kbits/s dup=0 drop=7    frame=   63 fps= 60 q=13.1 size=     370kB time=2.67 bitrate=1136.8kbits/s dup=0 drop=15    frame=   92 fps= 59 q=13.4 size=     472kB time=3.87 bitrate= 998.2kbits/s dup=0 drop=23    frame=  134 fps= 65 q=14.3 size=     629kB time=5.62 bitrate= 915.7kbits/s dup=0 drop=33    frame=  167 fps= 65 q=15.3 size=     748kB time=7.00 bitrate= 875.5kbits/s dup=0 drop=41    frame=  207 fps= 67 q=10.4 size=     903kB time=8.67 bitrate= 853.4kbits/s dup=0 drop=51    frame=  247 fps= 69 q=12.9 size=    1043kB time=10.33 bitrate= 826.8kbits/s dup=0 drop=61    frame=  283 fps= 69 q=12.9 size=    1169kB time=11.83 bitrate= 809.0kbits/s dup=0 drop=70    frame=  316 fps= 69 q=9.7 size=    1288kB time=13.21 bitrate= 798.9kbits/s dup=0 drop=78    frame=  356 fps= 70 q=10.2 size=    1422kB time=14.87 bitrate= 783.3kbits/s dup=0 drop=89    frame=  395 fps= 70 q=11.0 size=    1554kB time=16.50 bitrate= 771.6kbits/s dup=0 drop=98    frame=  434 fps= 71 q=9.5 size=    1699kB time=18.12 bitrate= 767.9kbits/s dup=0 drop=108    frame=  461 fps= 70 q=10.3 size=    1790kB time=19.25 bitrate= 761.9kbits/s dup=0 drop=114    frame=  503 fps= 71 q=9.6 size=    1938kB time=21.00 bitrate= 756.2kbits/s dup=0 drop=125    frame=  537 fps= 70 q=10.7 size=    2075kB time=22.42 bitrate= 758.2kbits/s dup=0 drop=133    frame=  569 fps= 70 q=10.9 size=    2208kB time=23.75 bitrate= 761.7kbits/s dup=0 drop=141    frame=  605 fps= 70 q=12.6 size=    2333kB time=25.25 bitrate= 756.8kbits/s dup=0 drop=150    frame=  635 fps= 69 q=15.9 size=    2437kB time=26.50 bitrate= 753.4kbits/s dup=0 drop=158    frame=  679 fps= 70 q=11.6 size=    2612kB time=28.33 bitrate= 755.1kbits/s dup=0 drop=169    frame=  706 fps= 70 q=17.9 size=    2711kB time=29.46 bitrate= 753.9kbits/s dup=0 drop=176    frame=  747 fps= 70 q=13.4 size=    2851kB time=31.17 bitrate= 749.3kbits/s dup=0 drop=186    frame=  786 fps= 70 q=9.8 size=    2972kB time=32.79 bitrate= 742.4kbits/s dup=0 drop=195    frame=  823 fps= 71 q=8.3 size=    3096kB time=34.33 bitrate= 738.7kbits/s dup=0 drop=204    frame=  866 fps= 71 q=9.0 size=    3243kB time=36.12 bitrate= 735.5kbits/s dup=0 drop=215    frame=  904 fps= 71 q=10.2 size=    3380kB time=37.71 bitrate= 734.3kbits/s dup=0 drop=225    frame=  943 fps= 72 q=9.1 size=    3509kB time=39.33 bitrate= 730.9kbits/s dup=0 drop=234    frame=  987 fps= 72 q=8.4 size=    3668kB time=41.17 bitrate= 730.0kbits/s dup=0 drop=245    frame= 1028 fps= 72 q=15.1 size=    3819kB time=42.87 bitrate= 729.6kbits/s dup=0 drop=255    frame= 1065 fps= 73 q=11.0 size=    3968kB time=44.42 bitrate= 731.8kbits/s dup=0 drop=265    frame= 1109 fps= 73 q=10.4 size=    4135kB time=46.25 bitrate= 732.5kbits/s dup=0 drop=276    frame= 1154 fps= 73 q=9.0 size=    4299kB time=48.12 bitrate= 731.8kbits/s dup=0 drop=287    frame= 1192 fps= 73 q=10.3 size=    4435kB time=49.71 bitrate= 730.8kbits/s dup=0 drop=296    frame= 1229 fps= 73 q=10.0 size=    4568kB time=51.25 bitrate= 730.1kbits/s dup=0 drop=305    frame= 1271 fps= 74 q=10.8 size=    4713kB time=53.00 bitrate= 728.5kbits/s dup=0 drop=316    frame= 1305 fps= 74 q=10.9 size=    4838kB time=54.42 bitrate= 728.4kbits/s dup=0 drop=325    frame= 1322 fps= 73 q=11.1 Lsize=    4909kB time=55.12 bitrate= 729.6kbits/s dup=0 drop=329    video:4209kB audio:646kB global headers:0kB muxing overhead 1.111190%